<?xml version="1.0" standalone="no"?>
<!DOCTYPE svg PUBLIC "-//W3C//DTD SVG 20010904//EN"
 "http://www.w3.org/TR/2001/REC-SVG-20010904/DTD/svg10.dtd">
<svg version="1.0" xmlns="http://www.w3.org/2000/svg"
 width="300.000000pt" height="232.000000pt" viewBox="0 0 300.000000 232.000000"
 preserveAspectRatio="xMidYMid meet">
<metadata>
Created by potrace 1.10, written by Peter Selinger 2001-2011
</metadata>
<g transform="translate(0.000000,232.000000) scale(0.100000,-0.100000)"
fill="#000000" stroke="none">
<path d="M1252 2266 c-224 -43 -416 -142 -582 -302 -393 -379 -457 -975 -154
-1430 281 -423 833 -607 1309 -437 414 149 698 512 746 953 59 539 -303 1056
-838 1197 -122 32 -362 41 -481 19z m459 -39 c200 -52 355 -137 498 -272 224
-214 341 -487 341 -797 0 -611 -487 -1099 -1095 -1098 -304 1 -550 100 -767
308 -355 341 -440 877 -208 1310 140 261 382 456 668 537 127 37 192 44 337
40 96 -3 155 -10 226 -28z"/>
<path d="M885 1790 c4 -6 127 -10 336 -10 l329 0 0 -248 c0 -509 -64 -775
-220 -916 -63 -56 -102 -70 -200 -70 -71 0 -99 6 -169 32 -101 38 -213 103
-326 188 -50 38 -87 59 -91 53 -3 -6 2 -17 12 -24 208 -153 344 -230 459 -260
283 -72 459 99 530 515 11 68 35 319 35 378 0 9 54 12 238 12 l238 0 32 -105
c18 -57 32 -108 32 -112 0 -4 -119 -7 -265 -6 -145 1 -266 -1 -269 -5 -5 -8
440 -645 455 -650 27 -10 -11 50 -205 323 l-213 300 264 3 c242 2 263 4 263
20 -1 9 -18 69 -38 132 l-38 115 -247 3 -247 2 0 99 c0 54 -3 126 -6 160 l-7
61 322 0 c207 0 321 4 321 10 0 7 -229 10 -666 10 -441 0 -663 -3 -659 -10z"/>
</g>
</svg>
